<svg xmlns="http://www.w3.org/2000/svg" width="12.794" height="12.794" viewBox="0 0 12.794 12.794"><defs><style>.a{fill:none;}.b{fill:#538944;}</style></defs><path class="a" d="M0,0H12.794V12.794H0Z"/><path class="b" d="M11.463,4.732H10.93V3.665a2.665,2.665,0,1,0-5.331,0V4.732H5.066A1.069,1.069,0,0,0,4,5.8v5.331a1.069,1.069,0,0,0,1.066,1.066h6.4a1.069,1.069,0,0,0,1.066-1.066V5.8A1.069,1.069,0,0,0,11.463,4.732Zm-3.2,4.8A1.066,1.066,0,1,1,9.331,8.463,1.069,1.069,0,0,1,8.265,9.529Zm1.653-4.8H6.612V3.665a1.653,1.653,0,1,1,3.305,0Z" transform="translate(-1.868 -0.467)"/></svg>