<svg xmlns="http://www.w3.org/2000/svg" xmlns:xlink="http://www.w3.org/1999/xlink" width="807" height="598" viewBox="0 0 807 598"><defs><style>.a,.b,.k{fill:#fff;}.a{stroke:#707070;}.b{stroke:#e4e4e4;}.c,.m{fill:#f5f6f8;}.d{clip-path:url(#a);}.e{fill:#feaf31;}.f{fill:#f5f5f5;}.ac,.g,.h{fill:none;}.g{stroke:#fff;stroke-linecap:round;stroke-linejoin:round;}.h{stroke:#48b5fe;}.i{fill:#eaf0ff;}.i,.r{opacity:0.5;}.j{fill:#d8dfff;}.l{clip-path:url(#d);}.m{stroke:#196fc1;}.n{fill:#bcbec1;}.o{fill:#c7e4ff;}.p{fill:#e1e8eb;}.q{fill:#b4d5f5;}.aa,.r{fill:#cfd0d2;}.s{fill:#48b5fe;}.t{fill:#e7eaee;}.u{fill:#dfdfdf;}.ae,.v{fill:#538944;}.v,.w{font-size:14px;}.v{font-family:OpenSans-SemiBold, Open Sans;font-weight:600;}.w{font-family:OpenSans-Regular, Open Sans;}.x{fill:#2b2b2b;}.ad,.x{opacity:0.2;}.y{clip-path:url(#o);}.z{fill:#ebf7ff;}.ab{fill:#ffc60a;}.af{stroke:none;}.ag{filter:url(#m);}.ah{filter:url(#k);}.ai{filter:url(#i);}.aj{filter:url(#g);}.ak{filter:url(#e);}.al{filter:url(#b);}</style><clipPath id="a"><rect class="a" width="807" height="598" transform="translate(1093 225)"/></clipPath><filter id="b" x="135" y="34" width="830" height="602" filterUnits="userSpaceOnUse"><feOffset dy="32" input="SourceAlpha"/><feGaussianBlur stdDeviation="25" result="c"/><feFlood flood-opacity="0.059"/><feComposite operator="in" in2="c"/><feComposite in="SourceGraphic"/></filter><clipPath id="d"><rect class="b" width="680" height="452" transform="translate(3689 642)"/></clipPath><filter id="e" x="276" y="273" width="573" height="46" filterUnits="userSpaceOnUse"><feOffset dy="1" input="SourceAlpha"/><feGaussianBlur result="f"/><feFlood flood-color="#c1d2db"/><feComposite operator="in" in2="f"/><feComposite in="SourceGraphic"/></filter><filter id="g" x="276" y="320" width="573" height="46" filterUnits="userSpaceOnUse"><feOffset dy="1" input="SourceAlpha"/><feGaussianBlur result="h"/><feFlood flood-color="#c1d2db"/><feComposite operator="in" in2="h"/><feComposite in="SourceGraphic"/></filter><filter id="i" x="276" y="367" width="573" height="46" filterUnits="userSpaceOnUse"><feOffset dy="1" input="SourceAlpha"/><feGaussianBlur result="j"/><feFlood flood-color="#c1d2db"/><feComposite operator="in" in2="j"/><feComposite in="SourceGraphic"/></filter><filter id="k" x="276" y="414" width="573" height="46" filterUnits="userSpaceOnUse"><feOffset dy="1" input="SourceAlpha"/><feGaussianBlur result="l"/><feFlood flood-color="#c1d2db"/><feComposite operator="in" in2="l"/><feComposite in="SourceGraphic"/></filter><filter id="m" x="276" y="461" width="573" height="46" filterUnits="userSpaceOnUse"><feOffset dy="1" input="SourceAlpha"/><feGaussianBlur result="n"/><feFlood flood-color="#c1d2db"/><feComposite operator="in" in2="n"/><feComposite in="SourceGraphic"/></filter><clipPath id="o"><path class="c" d="M5,0H680a0,0,0,0,1,0,0V447a5,5,0,0,1-5,5H0a0,0,0,0,1,0,0V5A5,5,0,0,1,5,0Z" transform="translate(3689 642)"/></clipPath></defs><g class="d" transform="translate(-1093 -225)"><g transform="translate(1321.7 224.819)"><g transform="translate(14.087)"><ellipse class="e" cx="37.944" cy="37.944" rx="37.944" ry="37.944" transform="translate(211.027 21.048)"/><rect class="f" width="70.618" height="187.611" transform="translate(299.162 0.351) rotate(30)"/><path class="g" d="M344.817,589.12c-5.217,3.069-11.438,7.973-18.217,15.848" transform="translate(-170.071 -428.453)"/></g><g class="h" transform="translate(210.099 26.108)"><circle class="af" cx="3.502" cy="3.502" r="3.502"/><circle class="ac" cx="3.502" cy="3.502" r="3.002"/></g></g><g transform="translate(1175.7 502.819)"><g transform="translate(14.087)"><rect class="i" width="102.37" height="97.16" transform="translate(48.775 70.727)"/><path class="j" d="M569.246,70.93,517.6,119.941,615.622,175.8Z" transform="translate(-517.6 -70.93)"/></g><g class="h" transform="translate(0 106.145)"><circle class="af" cx="3.502" cy="3.502" r="3.502"/><circle class="ac" cx="3.502" cy="3.502" r="3.002"/></g><g class="h" transform="translate(46.022 184.182)"><circle class="af" cx="3.502" cy="3.502" r="3.502"/><circle class="ac" cx="3.502" cy="3.502" r="3.002"/></g></g><g transform="translate(-2386 -340)"><g class="al" transform="matrix(1, 0, 0, 1, 3479, 565)"><path class="k" d="M5,0H680a0,0,0,0,1,0,0V447a5,5,0,0,1-5,5H5a5,5,0,0,1-5-5V5A5,5,0,0,1,5,0Z" transform="translate(210 77)"/></g><g class="l"><g class="b" transform="translate(3689 717)"><rect class="af" width="688" height="377"/><rect class="ac" x="0.5" y="0.5" width="687" height="376"/></g><g class="m" transform="translate(3767 688)"><rect class="af" width="626" height="24" rx="12"/><rect class="ac" x="0.5" y="0.5" width="625" height="23" rx="11.5"/></g></g><g transform="translate(-28 -11)"><rect class="n" width="8" height="46" transform="translate(3781 849)"/><rect class="n" width="8" height="46" transform="translate(3781 896)"/><rect class="n" width="8" height="46" transform="translate(3781 990)"/><rect class="n" width="8" height="46" transform="translate(3781 1037)"/><g class="ak" transform="matrix(1, 0, 0, 1, 3507, 576)"><rect class="c" width="573" height="45" transform="translate(276 273)"/></g><g class="aj" transform="matrix(1, 0, 0, 1, 3507, 576)"><rect class="c" width="573" height="45" transform="translate(276 320)"/></g><g class="ai" transform="matrix(1, 0, 0, 1, 3507, 576)"><rect class="o" width="573" height="45" transform="translate(276 367)"/></g><g class="ah" transform="matrix(1, 0, 0, 1, 3507, 576)"><rect class="c" width="573" height="45" transform="translate(276 414)"/></g><g class="ag" transform="matrix(1, 0, 0, 1, 3507, 576)"><rect class="c" width="573" height="45" transform="translate(276 461)"/></g><rect class="p" width="177" height="45" transform="translate(4119 849)"/><rect class="p" width="177" height="45" transform="translate(4119 896)"/><rect class="q" width="177" height="45" transform="translate(4119 943)"/><rect class="p" width="177" height="45" transform="translate(4119 990)"/><rect class="p" width="177" height="45" transform="translate(4119 1037)"/><rect class="r" width="145" height="19" rx="9.5" transform="translate(3781 817)"/><rect class="r" width="107" height="9" rx="4.5" transform="translate(3797 867)"/><rect class="r" width="107" height="9" rx="4.5" transform="translate(3910 867)"/><rect class="r" width="83" height="9" rx="4.5" transform="translate(4135 867)"/><rect class="r" width="28" height="9" rx="4.5" transform="translate(4135 913)"/><rect class="r" width="85" height="9" rx="4.5" transform="translate(4169 913)"/><rect class="s" width="95" height="9" rx="4.5" transform="translate(4135 960)"/><rect class="r" width="28" height="9" rx="4.5" transform="translate(4226 1007)"/><rect class="r" width="85" height="9" rx="4.5" transform="translate(4135 1007)"/><rect class="r" width="102" height="9" rx="4.5" transform="translate(4135 1054)"/><rect class="r" width="51" height="9" rx="4.5" transform="translate(4023 867)"/><rect class="r" width="44" height="9" rx="4.5" transform="translate(3797 913)"/><rect class="s" width="117" height="9" rx="4.5" transform="translate(3797 960)"/><rect class="r" width="103" height="9" rx="4.5" transform="translate(3847 913)"/><rect class="r" width="44" height="9" rx="4.5" transform="translate(3816 1054)"/><rect class="r" width="103" height="9" rx="4.5" transform="translate(3797 1007)"/><rect class="r" width="72" height="9" rx="4.5" transform="translate(3975 913)"/><rect class="s" width="103" height="9" rx="4.5" transform="translate(3920 960)"/><rect class="r" width="13" height="9" rx="4.5" transform="translate(3956 913)"/><rect class="r" width="44" height="9" rx="4.5" transform="translate(4015 1007)"/><rect class="s" width="44" height="9" rx="4.5" transform="translate(4029 960)"/><rect class="r" width="103" height="9" rx="4.5" transform="translate(3906 1007)"/><rect class="r" width="103" height="9" rx="4.5" transform="translate(3866 1054)"/><rect class="r" width="13" height="9" rx="4.5" transform="translate(4065 1007)"/><rect class="r" width="112" height="9" rx="4.5" transform="translate(3975 1054)"/><rect class="r" width="13" height="9" rx="4.5" transform="translate(3797 1054)"/><rect class="s" width="6" height="46" transform="translate(3781 943)"/></g><path class="t" d="M5,0H680a0,0,0,0,1,0,0V42a0,0,0,0,1,0,0H0a0,0,0,0,1,0,0V5A5,5,0,0,1,5,0Z" transform="translate(3689 642)"/><rect class="u" width="680" height="1" transform="translate(3689 716)"/><path class="k" d="M3716.049,651h192.556c3.97,0,7.189,2.239,7.189,5v21s-.331,7,8.659,7H3701.231c6.676,0,7.629-7,7.629-7V656C3708.861,653.238,3712.079,651,3716.049,651Z"/><text class="v" transform="translate(3791.538 705.215)"><tspan x="0" y="0">Secure</tspan></text><text class="v" transform="translate(3850.538 705.215)"><tspan x="0" y="0">https:</tspan></text><text class="w" transform="translate(3892.538 705.215)"><tspan x="0" y="0">mi_dominio.plankton.com/proyectos/plan_de_ventas</tspan></text><text class="w" transform="translate(3742.538 673.215)"><tspan x="0" y="0">Plankton - Mi Espacio</tspan></text><rect class="x" width="1" height="16" transform="translate(3843 692)"/><circle class="u" cx="10" cy="10" r="10" transform="translate(3716 658)"/><g transform="translate(3719.776 661.963)"><rect class="k" width="10.252" height="2.239" rx="1.12" transform="translate(0 6.718)"/><rect class="k" width="7.831" height="2.239" rx="1.12" transform="translate(2.421)"/><rect class="k" width="6.155" height="2.239" rx="1.12" transform="translate(6.337 3.359)"/><rect class="k" width="4.479" height="2.239" rx="1.12" transform="translate(0.182 3.359)"/><rect class="k" width="4.479" height="2.239" rx="1.12" transform="translate(0.182 10.097)"/></g><g class="y"><g transform="translate(3689 716)"><g class="b"><rect class="af" width="49" height="378"/><rect class="ac" x="0.5" y="0.5" width="48" height="377"/></g><rect class="z" width="34" height="37" rx="3" transform="translate(7 90)"/><g transform="translate(14 14.941)"><rect class="aa" width="21.244" height="4.641" rx="2.32" transform="translate(0 13.922)"/><rect class="aa" width="16.227" height="4.641" rx="2.32" transform="translate(5.009)"/><rect class="aa" width="12.754" height="4.641" rx="2.32" transform="translate(13.122 6.961)"/><rect class="aa" width="9.281" height="4.641" rx="2.32" transform="translate(0 6.961)"/><rect class="aa" width="9.281" height="4.641" rx="2.32" transform="translate(0 20.922)"/></g><g transform="translate(12.827)"><circle class="aa" cx="11.5" cy="11.5" r="11.5" transform="translate(0.173 205)"/><circle class="aa" cx="11.5" cy="11.5" r="11.5" transform="translate(0.173 169)"/><circle class="aa" cx="11.5" cy="11.5" r="11.5" transform="translate(0.173 133)"/><circle class="s" cx="11.5" cy="11.5" r="11.5" transform="translate(0.173 97)"/><circle class="aa" cx="11.5" cy="11.5" r="11.5" transform="translate(0.173 61)"/></g></g><g transform="translate(3737 716)"><g class="b"><rect class="af" width="589" height="56"/><rect class="ac" x="0.5" y="0.5" width="588" height="55"/></g><rect class="s" width="119" height="32" rx="16" transform="translate(409 12)"/><g transform="translate(235.443 19.562)"><path class="ab" d="M255.65,4329.04a1,1,0,0,1,.56,1.75l-3.67,3.18,1.1,4.73a1,1,0,0,1-1.49,1.08l-4.15-2.51-4.15,2.5a1,1,0,0,1-1.49-1.08l1.1-4.72-3.67-3.18a1,1,0,0,1,.57-1.75l4.83-.41,1.89-4.459a1,1,0,0,1,1.84,0l1.89,4.45,4.84.42Z" transform="translate(-239.443 -4323.562)"/></g><rect class="r" width="211" height="21" rx="10.5" transform="translate(16 18)"/></g></g><g transform="translate(3740 693)"><path class="ac" d="M0,0H14.931V14.931H0Z"/><path d="M12.5,5.462a4.978,4.978,0,1,0,1.294,4.759H12.5A3.731,3.731,0,1,1,8.981,5.244a3.68,3.68,0,0,1,2.625,1.107l-2,2h4.355V4Z" transform="translate(-1.515 -1.511)"/></g><g class="ad" transform="translate(3718 693)"><path class="ac" d="M0,0H15V15H0Z"/><path d="M9,4l-.881.881,3.488,3.494H4v1.25h7.606L8.119,13.119,9,14l5-5Z" transform="translate(-1.5 -1.5)"/></g><g transform="translate(3697 693)"><path class="ac" d="M15,0H0V15H15Z"/><path d="M9,4l.881.881L6.394,8.375H14v1.25H6.394l3.488,3.494L9,14,4,9Z" transform="translate(-1.5 -1.5)"/></g><g transform="translate(3891.797 660.796)"><path class="ac" d="M0,0H14.407V14.407H0Z"/><path d="M13.4,5.846,12.558,5,9.2,8.356,5.846,5,5,5.846,8.356,9.2,5,12.558l.846.846L9.2,10.049,12.558,13.4l.846-.846L10.049,9.2Z" transform="translate(-1.998 -1.998)"/></g><g transform="translate(3924.893 658.524)"><path class="ac" d="M0,0H17.583V17.583H0Z"/><path d="M15.257,10.861h-4.4v4.4H9.4v-4.4H5V9.4H9.4V5h1.465V9.4h4.4Z" transform="translate(-1.337 -1.337)"/></g><g transform="translate(3776 693.857)"><path class="ac" d="M0,0H12.794V12.794H0Z"/><path class="ae" d="M11.463,4.732H10.93V3.665a2.665,2.665,0,1,0-5.331,0V4.732H5.066A1.069,1.069,0,0,0,4,5.8v5.331a1.069,1.069,0,0,0,1.066,1.066h6.4a1.069,1.069,0,0,0,1.066-1.066V5.8A1.069,1.069,0,0,0,11.463,4.732Zm-3.2,4.8A1.066,1.066,0,1,1,9.331,8.463,1.069,1.069,0,0,1,8.265,9.529Zm1.653-4.8H6.612V3.665a1.653,1.653,0,1,1,3.305,0Z" transform="translate(-1.868 -0.467)"/></g></g></g></svg>